#!OML:ASF F:\VICON\USERDATA\INSTALL\rory3\rory3.ASF
:FULLY-SPECIFIED
:DEGREES
276
root 0.0559799 17.9858 12.2361 183.738 -74.9457 177.145
lowerback 8.85808 -2.3512 1.00535
upperback -0.675071 -2.91411 2.89163
thorax -5.5745 -1.44323 2.85139
lowerneck 5.32025 -16.8305 -15.0674
upperneck 32.8996 -34.1093 12.3604
head 15.8898 -16.8538 2.08727
rclavicle 6.97734e-014 -2.78299e-014
rhumerus -32.6997 -16.807 -76.9075
rradius 34.6867
rwrist 4.58147
rhand -16.4879 6.24577
rfingers 7.12502
rthumb 9.72944 -23.5095
lclavicle 6.97734e-014 -2.78299e-014
lhumerus -35.1575 11.8694 73.4825
lradius 22.5671
lwrist -8.79429
lhand -19.4011 27.0756
lfingers 7.12502
lthumb 6.91795 56.9425
rfemur -0.338038 6.43747 23.8625
rtibia 33.0994
rfoot -11.9418 10.3185
rtoes 10.1793
lfemur -16.9334 -7.2607 -12.8941
ltibia 16.7744
lfoot 4.83454 -16.3616
ltoes 2.45302
277
root 0.189074 17.9842 12.2475 183.515 -75.0638 177.569
lowerback 8.94644 -2.22423 1.22618
upperback -0.656162 -2.71913 2.92474
thorax -5.62095 -1.35362 2.74016
lowerneck 5.12618 -16.8481 -15.091
upperneck 32.8183 -33.9993 12.4085
head 15.881 -16.7758 2.11084
rclavicle -5.11871e-014 7.95139e-016
rhumerus -32.5343 -16.6451 -76.9758
rradius 34.6787
rwrist 4.67988
rhand -16.3855 6.55232
rfingers 7.12502
rthumb 9.82828 -23.1983
lclavicle -5.11871e-014 7.95139e-016
lhumerus -35.1493 12.4924 73.2696
lradius 22.7493
lwrist -9.31344
lhand -18.7983 27.0092
lfingers 7.12502
lthumb 7.49988 56.8563
rfemur -0.9405 6.33345 23.9847
rtibia 32.9616
rfoot -12.3419 10.4481
rtoes 9.38345
lfemur -17.3923 -7.02064 -12.6891
ltibia 16.6134
lfoot 4.10839 -15.2779
ltoes -0.553276
278
root 0.318557 17.985 12.2591 183.593 -75.2584 177.54
lowerback 9.11498 -2.1219 1.33307
upperback -0.584633 -2.56891 2.93531
thorax -5.65057 -1.28315 2.67672
lowerneck 5.00774 -16.8775 -15.13
upperneck 32.6825 -33.9196 12.4943
head 15.8495 -16.7167 2.15371
rclavicle 4.67144e-015 2.38542e-014
rhumerus -32.3049 -16.4308 -77.0429
rradius 34.6133
rwrist 4.71131
rhand -16.6132 6.63729
rfingers 7.12502
rthumb 9.60855 -23.1236
lclavicle 4.67144e-015 2.38542e-014
lhumerus -35.1249 13.2707 73.0092
lradius 22.9412
lwrist -10.2245
lhand -17.4881 26.7654
lfingers 7.12502
lthumb 8.76438 56.5635
rfemur -1.37582 6.04819 23.8789
rtibia 32.8536
rfoot -12.445 11.0746
rtoes 10.7874
lfemur -17.7112 -6.66808 -12.7161
ltibia 16.5746
lfoot 3.32905 -14.2491
ltoes -3.23885
279
root 0.443126 17.9854 12.2675 183.873 -75.4498 177.231
lowerback 9.29613 -2.01707 1.29063
upperback -0.530724 -2.42958 2.95857
thorax -5.69812 -1.21309 2.71257
lowerneck 5.08575 -16.8574 -15.2829
upperneck 32.5379 -33.8628 12.6738
head 15.831 -16.6935 2.25908
rclavicle 1.88845e-015 -7.95139e-015
rhumerus -32.2404 -16.271 -77.0016
rradius 34.6424
rwrist 5.01035
rhand -16.1331 6.47989
rfingers 7.12502
rthumb 10.0717 -23.2591
lclavicle 1.88845e-015 -7.95139e-015
lhumerus -35.2437 13.4289 73.1519
lradius 23.3144
lwrist -9.92958
lhand -17.257 26.6095
lfingers 7.12502
lthumb 8.98738 56.398
rfemur -1.71295 5.73455 23.7203
rtibia 32.7198
rfoot -12.519 11.5585
rtoes 12.402
lfemur -17.9398 -5.86055 -12.9848
ltibia 16.6794
lfoot 2.10325 -13.7085
ltoes -8.09657
280
root 0.565341 17.9908 12.2705 183.66 -75.6853 177.342
lowerback 9.56713 -1.9561 1.315
upperback -0.50005 -2.33759 2.99694
thorax -5.82163 -1.16782 2.73799
lowerneck 5.18052 -16.8025 -15.4079
upperneck 32.5144 -33.8055 12.7945
head 15.8494 -16.6769 2.33985
rclavicle 8.10048e-014 -2.8625e-014
rhumerus -32.2879 -15.838 -77.0605
rradius 34.7402
rwrist 5.02829
rhand -16.0313 6.55113
rfingers 7.12502
rthumb 10.17 -23.1831
lclavicle 8.10048e-014 -2.8625e-014
lhumerus -35.442 12.475 73.9037
lradius 23.937
lwrist -7.59704
lhand -18.7113 27.4763
lfingers 7.12502
lthumb 7.58385 57.3203
rfemur -1.9408 5.70865 23.8652
rtibia 32.5772
rfoot -12.7285 11.2179
rtoes 12.1511
lfemur -18.0286 -4.915 -13.1822
ltibia 16.8352
lfoot 0.763462 -13.222
ltoes -12.6217
281
root 0.687814 18.0008 12.2732 183.469 -76.0018 177.457
lowerback 9.76237 -1.95594 1.35778
upperback -0.445908 -2.32849 3.01304
thorax -5.87628 -1.16473 2.73683
lowerneck 5.26117 -16.7533 -15.3703
upperneck 32.4992 -33.6811 12.7789
head 15.7876 -16.6265 2.37518
rclavicle 4.79071e-014 -3.97569e-015
rhumerus -32.2268 -15.1155 -77.2878
rradius 34.7752
rwrist 4.71428
rhand -16.6358 6.74923
rfingers 7.12502
rthumb 9.58677 -23.0127
lclavicle 4.79071e-014 -3.97569e-015
lhumerus -35.5874 12.6949 73.8144
lradius 24.1423
lwrist -8.13013
lhand -17.3397 27.1129
lfingers 7.12502
lthumb 8.90759 56.9049
rfemur -2.17042 5.82793 24.0947
rtibia 32.4376
rfoot -12.8809 10.6296
rtoes 12.0797
lfemur -18.1009 -4.27696 -13.3141
ltibia 17.0987
lfoot -0.379989 -12.3007
ltoes -13.796
282
root 0.809775 18.0107 12.2777 184.267 -76.3238 176.513
lowerback 9.97919 -1.95233 1.09199
upperback -0.352916 -2.3506 3.03484
thorax -5.88815 -1.16772 2.91936
lowerneck 5.24215 -16.7629 -15.2592
upperneck 32.4789 -33.4897 12.5329
head 15.6487 -16.5422 2.32812
rclavicle -5.96354e-016 -3.18055e-014
rhumerus -32.0709 -14.5017 -77.3893
rradius 34.7849
rwrist 4.64484
rhand -17.1064 6.85241
rfingers 7.12502
rthumb 9.13263 -22.9298
lclavicle -5.96354e-016 -3.18055e-014
lhumerus -35.632 12.4816 74.329
lradius 24.4396
lwrist -7.03066
lhand -17.4227 27.1677
lfingers 7.12502
lthumb 8.8275 56.963
rfemur -2.33393 5.85475 24.0295
rtibia 32.2987
rfoot -12.9838 10.1697
rtoes 12.0592
lfemur -18.0791 -4.17322 -13.6633
ltibia 17.573
lfoot -1.91908 -10.9267
ltoes -14.4931
283
root 0.928026 18.0187 12.2852 185.401 -76.6286 175.229
lowerback 10.1402 -1.93837 0.849727
upperback -0.255356 -2.36144 2.97541
thorax -5.8682 -1.16669 2.99876
lowerneck 5.25423 -16.7424 -15.2205
upperneck 32.5516 -33.4043 12.4348
head 15.6312 -16.5033 2.31255
rclavicle -1.78906e-015 3.10104e-014
rhumerus -32.0022 -14.0523 -77.5276
rradius 34.8761
rwrist 4.73255
rhand -17.2138 6.67078
rfingers 7.12502
rthumb 9.02907 -23.116
lclavicle -1.78906e-015 3.10104e-014
lhumerus -35.6178 12.1264 74.8469
lradius 24.7491
lwrist -5.88072
lhand -17.7883 27.0539
lfingers 7.12502
lthumb 8.47461 56.8639
rfemur -2.52139 5.72071 23.8251
rtibia 32.1949
rfoot -13.1037 9.84639
rtoes 12.4363
lfemur -18.0178 -4.05344 -14.1357
ltibia 18.162
lfoot -3.4206 -9.44101
ltoes -15.3852
284
root 1.04209 18.0299 12.2943 186.251 -76.9936 174.344
lowerback 10.1465 -1.93513 0.785944
upperback -0.199234 -2.3685 2.91024
thorax -5.81229 -1.16942 2.96529
lowerneck 5.32374 -16.725 -15.1701
upperneck 32.6398 -33.4064 12.4269
head 15.6512 -16.5009 2.31285
rclavicle 1.70955e-014 1.11319e-014
rhumerus -31.9524 -13.5124 -77.7308
rradius 34.9435
rwrist 4.49566
rhand -17.36 6.35617
rfingers 7.12502
rthumb 8.88801 -23.4366
lclavicle 1.70955e-014 1.11319e-014
lhumerus -35.5874 11.6967 75.2443
lradius 24.9208
lwrist -5.53588
lhand -17.7605 26.6832
lfingers 7.12502
lthumb 8.50145 56.4921
rfemur -2.88069 5.3947 23.7204
rtibia 32.1406
rfoot -13.2764 9.49178
rtoes 12.4047
lfemur -18.0761 -3.71199 -14.5452
ltibia 18.8859
lfoot -4.46817 -8.05863
ltoes -17.2871
285
root 1.1565 18.0392 12.3011 186.931 -77.3948 173.515
lowerback 10.276 -1.9503 0.679089
upperback -0.117175 -2.40196 2.89694
thorax -5.7934 -1.18378 3.01964
lowerneck 5.30398 -16.7162 -15.157
upperneck 32.7963 -33.4202 12.3711
head 15.7206 -16.4997 2.28225
rclavicle 2.22639e-014 -2.06736e-014
rhumerus -31.8337 -13.1417 -77.7679
rradius 34.885
rwrist 4.33448
rhand -17.3801 6.30371
rfingers 7.12502
rthumb 8.86855 -23.4899
lclavicle 2.22639e-014 -2.06736e-014
lhumerus -35.5857 11.3128 75.6558
lradius 25.0962
lwrist -5.62931
lhand -17.5823 26.2712
lfingers 7.12502
lthumb 8.67348 56.073
rfemur -3.11083 5.16874 23.7166
rtibia 32.1083
rfoot -13.4616 8.97124
rtoes 11.5217
lfemur -18.03 -3.39264 -14.9247
ltibia 19.8337
lfoot -5.22623 -6.53502
ltoes -18.9008
